<?xml version="1.0" encoding="UTF-8"?>
<svg width="50px" height="50px" viewBox="0 0 24 24" version="1.1" xmlns="http://www.w3.org/2000/svg" xmlns:xlink="http://www.w3.org/1999/xlink">
    <!-- Generator: sketchtool 53.2 (72643) - https://sketchapp.com -->
    <title>0660F564-89DC-46A9-B872-5094E6E9753E</title>
    <desc>Created with sketchtool.</desc>
    <g id="FAQ" stroke="none" stroke-width="1" fill="none" fill-rule="evenodd">
        <g id="1.-Home-(Desktop)" transform="translate(-1048.000000, -2741.000000)">
            <g id="Footer" transform="translate(0.000000, 2257.000000)">
                <g id="ico-facebook" transform="translate(1042.000000, 478.000000)">
                    <rect id="Bounds" x="0" y="0" width="36" height="36"></rect>
                    <g id="Facebook" transform="translate(6.000000, 6.000000)" fill="#000000" fill-rule="nonzero">
                        <path d="M17.1377113,24 L17.1377113,14.8762539 L20.379492,14.8762539 L20.861694,11.3203324 L17.1377113,11.3203324 L17.1377113,9.04976875 C17.1377113,8.02042303 17.4404893,7.31859641 19.0067114,7.31859641 L21,7.31859641 L21,4.14051359 C20.0352806,4.04386236 19.0656976,3.99700429 18.0955739,4.00014827 C15.2219862,4.00014827 13.2539291,5.65716534 13.2539291,8.70017964 L13.2539291,11.3229808 L10,11.3229808 L10,14.8789023 L13.2501911,14.8789023 L13.2501911,24 L2,24 C0.8954305,24 1.3527075e-16,23.1045695 0,22 L0,2 C-1.3527075e-16,0.8954305 0.8954305,2.02906125e-16 2,0 L22,0 C23.1045695,-2.02906125e-16 24,0.8954305 24,2 L24,22 C24,23.1045695 23.1045695,24 22,24 L17.1377113,24 Z" id="Combined-Shape"></path>
                    </g>
                </g>
            </g>
        </g>
    </g>
</svg>