<?xml version="1.0" encoding="UTF-8"?>
<svg width="50 px" height="50px" viewBox="0 0 24 24" version="1.1" xmlns="http://www.w3.org/2000/svg" xmlns:xlink="http://www.w3.org/1999/xlink">
    <!-- Generator: sketchtool 53.2 (72643) - https://sketchapp.com -->
    <title>940563E8-F21F-48E6-A169-8DC1CE758121</title>
    <desc>Created with sketchtool.</desc>
    <g id="FAQ" stroke="none" stroke-width="1" fill="none" fill-rule="evenodd">
        <g id="1.-Home-(Desktop)" transform="translate(-1100.000000, -2743.000000)">
            <g id="Footer" transform="translate(0.000000, 2257.000000)">
                <g id="ico-twitter" transform="translate(1094.000000, 478.000000)">
                    <rect id="Bounds" x="0" y="0" width="36" height="36"></rect>
                    <g id="Twitter" transform="translate(6.000000, 8.000000)" fill="#000000" fill-rule="nonzero">
                        <path d="M7.78186105,18.5263158 C16.3618358,18.5263158 21.05472,11.6006382 21.05472,5.59472179 C21.05472,5.39800986 21.05472,5.20218403 21.0410779,5.00724428 C21.9540361,4.36386412 22.742117,3.56724155 23.3684211,2.65467596 C22.5170437,3.02222756 21.613891,3.26326779 20.6891116,3.3697504 C21.6629251,2.80175096 22.3917586,1.90838634 22.7399747,0.85591374 C21.824278,1.38531278 20.8224824,1.75840681 19.7778189,1.95909549 C18.3318311,0.461067072 16.03417,0.0944193489 14.1732322,1.06474731 C12.3122943,2.03507527 11.3508859,4.10106308 11.8281095,6.10422341 C8.07734518,5.92102394 4.58276534,4.19498641 2.21406316,1.35566837 C0.97592638,3.43234797 1.60834266,6.08903537 3.65830737,7.42272497 C2.91594147,7.40128829 2.18976145,7.20617631 1.54105263,6.85385534 C1.54105263,6.87246323 1.54105263,6.8919572 1.54105263,6.91145118 C1.54166028,9.07492172 3.1069403,10.9383173 5.28353684,11.3667105 C4.59676561,11.5491919 3.87619961,11.5758669 3.17719579,11.4446864 C3.78831475,13.2961026 5.5396215,14.5644169 7.53539368,14.6009381 C5.8835485,15.865771 3.84298465,16.5523982 1.74204632,16.5503356 C1.37089335,16.5496414 1.00010138,16.527747 0.631578947,16.484765 C2.76487312,17.8185751 5.24707914,18.526065 7.78186105,18.5227714" id="Combined-Shape"></path>
                    </g>
                </g>
            </g>
        </g>
    </g>
</svg>